# xmcd
#
# Track frame offsets:
#	150
#	21936
#	42526
#	73025
#	95857
#	134779
#	150407
#	176868
#	203709
#	210228
#	233086
#	255467
#
# Disc length: 3728 seconds
# Revision: 0
# Processed by: cddbd v1.5.2PL0 Copyright (c) Steve Scherf et al.
# Submitted via: dBpowerAMP V12.0
#
DISCID=ac0e8e0c
DTITLE=Bluesville Station - Rolling Stock
DYEAR=2014
DGENRE=Blues Rock
TTITLE0=Wrong Side Of The Bed
TTITLE1=Slide On Mamma 
TTITLE2=What Will I Do
TTITLE3=Wants To Be Blues       
TTITLE4=Gran Chicama
TTITLE5=Rolling Stock
TTITLE6=On The Slow Train
TTITLE7=Apple Tree Creek
TTITLE8=Junction Box
TTITLE9=Ship's Goin' Down 
TTITLE10=Shooting Sister Blues
TTITLE11=From Out Of The Blue
EXTD=
EXTT0=
EXTT1=
EXTT2=
EXTT3=
EXTT4=
EXTT5=
EXTT6=
EXTT7=
EXTT8=
EXTT9=
EXTT10=
EXTT11=
PLAYORDER=
